<svg width="573" height="574" viewBox="0 0 573 574" fill="none" xmlns="http://www.w3.org/2000/svg">
<path d="M313.802 5.24658C454.315 5.24674 568.621 119.555 568.621 260.066C568.621 400.577 454.313 514.885 313.802 514.885C265.256 514.885 219.838 501.223 181.178 477.562L106.979 551.76C83.5435 575.198 45.5453 575.198 22.1074 551.76V551.761C-1.33088 528.325 -1.33051 490.326 22.1074 466.888L96.3047 392.689C72.644 354.03 58.9824 308.613 58.9824 260.066C58.9826 119.555 173.291 5.24658 313.802 5.24658ZM313.802 69.6177C208.792 69.6177 123.353 155.057 123.353 260.066C123.353 365.075 208.793 450.515 313.802 450.515C418.813 450.515 504.25 365.075 504.25 260.066C504.25 155.057 418.812 69.6178 313.802 69.6177Z" fill="#1C2122" stroke="#1C2122" stroke-width="8.71235"/>
</svg>
