<svg width="759" height="759" viewBox="0 0 759 759" fill="none" xmlns="http://www.w3.org/2000/svg">
<path d="M438.132 203.503C421.944 203.503 408.822 216.626 408.822 232.813C408.822 249.001 421.944 262.123 438.132 262.123V203.503ZM320.892 555.224C337.08 555.224 350.202 542.102 350.202 525.914C350.202 509.726 337.08 496.604 320.892 496.604V555.224ZM438.132 496.604C421.944 496.604 408.822 509.726 408.822 525.914C408.822 542.102 421.944 555.224 438.132 555.224V496.604ZM262.272 350.054C246.084 350.054 232.962 363.176 232.962 379.364C232.962 395.552 246.084 408.674 262.272 408.674V350.054ZM136.447 94.8473C125 83.4012 106.442 83.4012 94.9958 94.8473C83.5496 106.294 83.5496 124.852 94.9958 136.298L136.447 94.8473ZM622.578 663.88C634.023 675.325 652.583 675.325 664.028 663.88C675.474 652.434 675.474 633.875 664.028 622.429L622.578 663.88ZM596.744 440.616C588.27 454.409 592.585 472.461 606.378 480.932C620.171 489.405 638.221 485.091 646.694 471.298L596.744 440.616ZM379.512 408.674C395.7 408.674 408.822 395.552 408.822 379.364C408.822 363.176 395.7 350.054 379.512 350.054V408.674ZM262.272 496.604C197.522 496.604 145.031 444.113 145.031 379.364H86.4111C86.4111 476.489 165.147 555.224 262.272 555.224V496.604ZM496.753 262.123C561.501 262.123 613.993 314.614 613.993 379.364H672.613C672.613 282.238 593.877 203.503 496.753 203.503V262.123ZM438.132 262.123H496.753V203.503H438.132V262.123ZM320.892 496.604H262.272V555.224H320.892V496.604ZM496.753 496.604H438.132V555.224H496.753V496.604ZM613.993 379.364C613.993 401.868 607.68 422.81 596.744 440.616L646.694 471.298C663.137 444.526 672.613 413.006 672.613 379.364H613.993ZM262.272 408.674H379.512V350.054H262.272V408.674ZM94.9958 136.298L214.691 255.994L256.142 214.543L136.447 94.8473L94.9958 136.298ZM230.079 206.448C148.327 221.588 86.4111 293.214 86.4111 379.364H145.031C145.031 321.983 186.282 274.176 240.754 264.088L230.079 206.448ZM214.691 255.994L502.881 544.183L544.332 502.733L256.142 214.543L214.691 255.994ZM502.881 544.183L622.578 663.88L664.028 622.429L544.332 502.733L502.881 544.183ZM518.269 494.64C511.317 495.927 504.127 496.604 496.753 496.604V555.224C507.723 555.224 518.486 554.216 528.944 552.279L518.269 494.64Z" fill="#1C2122"/>
</svg>
