<svg width="697" height="697" viewBox="0 0 697 697" fill="none" xmlns="http://www.w3.org/2000/svg">
<path d="M348.199 279.626C297.753 279.626 256.479 320.899 256.479 371.345C256.479 421.79 297.753 463.064 348.199 463.064C398.644 463.064 439.918 421.79 439.918 371.345C439.918 320.899 398.644 279.626 348.199 279.626Z" fill="#1C2122"/>
<path d="M577.497 210.839H517.879C501.829 210.839 488.071 202.813 478.899 190.202L452.53 150.075C444.504 130.585 425.014 119.12 404.377 119.12H292.021C271.384 119.12 251.894 130.585 242.722 150.075L216.353 190.202C208.328 202.813 193.423 210.839 177.372 210.839H118.902C93.6788 210.839 73.042 231.475 73.042 256.698V531.855C73.042 557.078 93.6788 577.715 118.902 577.715H577.497C602.72 577.715 623.356 557.078 623.356 531.855V256.698C623.356 231.475 602.72 210.839 577.497 210.839ZM348.199 508.926C272.531 508.926 210.621 447.015 210.621 371.347C210.621 295.679 272.531 233.768 348.199 233.768C423.867 233.768 485.778 295.679 485.778 371.347C485.778 447.015 423.867 508.926 348.199 508.926Z" fill="#1C2122"/>
</svg>
