<svg width="906" height="906" viewBox="0 0 906 906" fill="none" xmlns="http://www.w3.org/2000/svg">
<path d="M511.623 277.142C495.435 277.142 482.312 290.264 482.312 306.452C482.312 322.639 495.435 335.762 511.623 335.762V277.142ZM394.382 628.863C410.57 628.863 423.692 615.741 423.692 599.553C423.692 583.365 410.57 570.243 394.382 570.243V628.863ZM511.623 570.243C495.435 570.243 482.312 583.365 482.312 599.553C482.312 615.741 495.435 628.863 511.623 628.863V570.243ZM335.762 423.692C319.575 423.692 306.452 436.814 306.452 453.002C306.452 469.19 319.575 482.312 335.762 482.312V423.692ZM209.937 168.486C198.49 157.04 179.932 157.04 168.486 168.486C157.04 179.932 157.04 198.49 168.486 209.937L209.937 168.486ZM696.068 737.518C707.514 748.964 726.073 748.964 737.518 737.518C748.964 726.073 748.964 707.514 737.518 696.068L696.068 737.518ZM670.234 514.255C661.761 528.048 666.075 546.1 679.868 554.571C693.662 563.044 711.711 558.73 720.184 544.936L670.234 514.255ZM453.002 482.312C469.19 482.312 482.312 469.19 482.312 453.002C482.312 436.814 469.19 423.692 453.002 423.692V482.312ZM335.762 570.243C271.012 570.243 218.522 517.751 218.522 453.002H159.901C159.901 550.127 238.637 628.863 335.762 628.863V570.243ZM570.243 335.762C634.992 335.762 687.483 388.252 687.483 453.002H746.103C746.103 355.877 667.368 277.142 570.243 277.142V335.762ZM511.623 335.762H570.243V277.142H511.623V335.762ZM394.382 570.243H335.762V628.863H394.382V570.243ZM570.243 570.243H511.623V628.863H570.243V570.243ZM687.483 453.002C687.483 475.507 681.17 496.449 670.234 514.255L720.184 544.936C736.627 518.165 746.103 486.644 746.103 453.002H687.483ZM335.762 482.312H453.002V423.692H335.762V482.312ZM168.486 209.937L288.182 329.632L329.632 288.182L209.937 168.486L168.486 209.937ZM303.57 280.087C221.817 295.227 159.901 366.853 159.901 453.002H218.522C218.522 395.622 259.772 347.815 314.244 337.727L303.57 280.087ZM288.182 329.632L576.372 617.822L617.822 576.371L329.632 288.182L288.182 329.632ZM576.372 617.822L696.068 737.518L737.518 696.068L617.822 576.371L576.372 617.822ZM591.759 568.279C584.807 569.566 577.617 570.243 570.243 570.243V628.863C581.214 628.863 591.976 627.855 602.434 625.917L591.759 568.279Z" fill="#1C2122"/>
</svg>
