<svg width="759" height="759" viewBox="0 0 759 759" fill="none" xmlns="http://www.w3.org/2000/svg">
<path d="M243.43 189.179C243.43 189.179 241.93 372.845 243.43 374.346C244.931 375.846 304.724 378.74 306.421 375.2C308.664 370.523 313.448 331.984 313.448 298.316C322.165 330.845 316.198 375.385 320.242 375.397C398.168 375.644 513.204 375.369 514.229 374.345C517.622 370.953 514.229 191.676 514.229 191.676C512.625 189.796 511.085 187.83 509.41 186.032C474.156 148.164 426.835 132.113 377.76 132.113C328.686 132.113 281.365 148.164 246.112 186.032C245.18 187.033 244.342 188.152 243.43 189.179Z" fill="#1C2122"/>
<path d="M532.785 543.243C551.048 519.018 565.684 490.616 575.871 459.414C592.72 455.331 606.459 444.741 615.947 432.152C628.133 415.989 634.744 395.087 634.744 373.329C634.744 351.154 627.767 330.927 612.396 316.432C605.048 309.503 596.704 304.756 588.043 301.714C579.739 253.427 559.506 214.586 529.236 186.044C489.074 148.176 435.154 132.129 379.25 132.129C323.346 132.129 269.427 148.176 229.267 186.044C198.996 214.586 178.763 253.428 170.459 301.716C161.8 304.756 153.453 309.503 146.107 316.432C130.734 330.927 123.757 351.154 123.757 373.331C123.757 395.089 130.368 415.989 142.553 432.154C152.044 444.741 165.78 455.331 182.63 459.414C192.816 490.616 207.453 519.018 225.716 543.243C263.071 592.791 317.042 626.311 379.25 626.311C441.461 626.311 495.431 592.791 532.785 543.243Z" stroke="#1C2122" stroke-width="43.1809"/>
</svg>
