<svg width="759" height="759" viewBox="0 0 759 759" fill="none" xmlns="http://www.w3.org/2000/svg">
<path d="M379.387 137C323.483 137 269.575 153.05 229.415 190.918C199.145 219.46 178.896 258.301 170.592 306.589C166.486 308.031 162.454 309.913 158.562 312.173C158.562 312.173 222.782 331.977 242.586 312.173C265.605 289.154 242.586 214.515 242.586 214.515C281.917 230.769 329.968 239.578 379.387 239.592C428.807 239.578 476.857 230.769 516.188 214.515C516.188 214.515 493.17 289.154 516.188 312.173C535.993 331.977 600.212 312.173 600.212 312.173C596.321 309.913 592.288 308.032 588.182 306.589C579.878 258.303 559.63 219.46 529.359 190.918C489.198 153.05 435.291 137 379.387 137Z" fill="#1C2122"/>
<path d="M532.922 543.243C551.185 519.018 565.821 490.615 576.008 459.413C592.857 455.331 606.595 444.74 616.084 432.151C628.27 415.989 634.881 395.087 634.881 373.329C634.881 351.154 627.904 330.926 612.533 316.431C605.184 309.503 596.841 304.755 588.18 301.713C579.876 253.427 559.643 214.586 529.373 186.043C489.211 148.175 435.291 132.128 379.387 132.128C323.483 132.128 269.563 148.175 229.403 186.043C199.133 214.586 178.9 253.427 170.596 301.715C161.937 304.755 153.59 309.503 146.243 316.431C130.87 330.926 123.894 351.154 123.894 373.33C123.894 395.088 130.504 415.989 142.69 432.153C152.18 444.74 165.917 455.331 182.767 459.413C192.953 490.615 207.589 519.018 225.852 543.243C263.208 592.79 317.178 626.311 379.387 626.311C441.597 626.311 495.568 592.79 532.922 543.243Z" stroke="#1C2122" stroke-width="43.1809"/>
</svg>
