<svg width="759" height="759" viewBox="0 0 759 759" fill="none" xmlns="http://www.w3.org/2000/svg">
<path d="M516.173 301.269H242.232C242.232 335.575 233.1 367.863 219.403 390.061C192.009 434.457 150.918 503.069 150.918 503.069C150.918 503.069 192.009 527.284 253.646 545.446" stroke="#1C2122" stroke-width="43.1809" stroke-linecap="round" stroke-linejoin="round"/>
<path d="M287.887 482.888L242.23 563.608C242.23 563.608 303.867 583.788 379.201 583.788C454.535 583.788 516.172 563.608 516.172 563.608L470.515 482.888" stroke="#1C2122" stroke-width="43.1809" stroke-linecap="round" stroke-linejoin="round"/>
<path d="M504.758 545.447C566.395 527.285 607.486 503.069 607.486 503.069C607.486 503.069 566.395 434.457 539 390.061C525.303 367.863 516.172 335.575 516.172 301.269" stroke="#1C2122" stroke-width="43.1809" stroke-linecap="round" stroke-linejoin="round"/>
</svg>
