<svg width="759" height="759" viewBox="0 0 759 759" fill="none" xmlns="http://www.w3.org/2000/svg">
<path d="M201.438 310.269C214.853 353.856 239.097 391.483 270.907 418.091C302.718 444.698 340.571 459.012 379.379 459.106C418.194 459.02 456.057 444.711 487.875 418.102C519.692 391.494 543.939 353.863 557.356 310.269C500.862 321.716 440.433 327.671 379.379 327.806C318.337 327.668 257.921 321.714 201.438 310.269Z" fill="#1C2122"/>
<path d="M208.357 309.972C234.748 361.751 302.935 396.191 379.281 396.303C455.64 396.2 523.84 361.758 550.235 309.972C495.97 316.612 437.926 320.065 379.281 320.144C320.648 320.065 262.613 316.61 208.357 309.972Z" fill="#E0DCDB" stroke="#1C2122" stroke-width="38.3831" stroke-miterlimit="20" stroke-linecap="round" stroke-linejoin="round"/>
</svg>
