<svg width="760" height="759" viewBox="0 0 760 759" fill="none" xmlns="http://www.w3.org/2000/svg">
<path fill-rule="evenodd" clip-rule="evenodd" d="M345.034 179.676C332.886 179.676 322.325 187.431 301.223 202.961L269.448 226.338C266.125 228.788 264.463 230.003 262.672 231.035C260.881 232.067 258.98 232.877 255.194 234.535L219.026 250.304C194.987 260.804 182.967 266.036 176.893 276.518C170.837 287.018 172.277 300.023 175.213 326.034L179.608 365.18C180.069 369.27 180.291 371.314 180.291 373.378C180.291 375.441 180.07 377.486 179.608 381.575L175.213 420.721C172.296 446.732 170.837 459.737 176.893 470.238C182.986 480.738 194.987 485.969 219.026 496.451L255.213 512.22C258.98 513.878 260.881 514.688 262.672 515.72C264.444 516.752 266.125 517.967 269.448 520.417L301.204 543.794C322.345 559.324 332.905 567.079 345.034 567.079C357.165 567.079 367.745 559.324 388.848 543.794L420.623 520.417C423.946 517.967 425.607 516.752 427.398 515.72C429.189 514.688 431.091 513.878 434.876 512.22L471.046 496.451C495.085 485.951 507.103 480.719 513.178 470.238C519.233 459.737 517.793 446.732 514.839 420.721L510.463 381.575C510.005 377.486 509.768 375.441 509.768 373.378C509.768 371.314 510.005 369.27 510.463 365.18L514.857 326.034C517.775 300.023 519.233 287.018 513.178 276.518C507.085 266.017 495.085 260.786 471.046 250.304L434.857 234.535C432.31 233.503 429.819 232.335 427.398 231.035C425.056 229.592 422.794 228.024 420.623 226.338L388.866 202.961C367.708 187.431 357.148 179.676 345.034 179.676ZM345.034 447.063C385.821 447.063 418.886 414.073 418.886 373.378C418.886 332.682 385.821 299.692 345.034 299.692C246.565 299.692 246.565 447.063 345.034 447.063Z" stroke="#1C2122" stroke-width="43.1809"/>
<path d="M522.703 578.763C353.74 578.763 432.346 437.025 522.703 310.204C609.276 431.713 691.668 578.763 522.703 578.763Z" fill="#E8E8E8" stroke="#1C2122" stroke-width="43.1809" stroke-miterlimit="20" stroke-linecap="round" stroke-linejoin="round"/>
</svg>
