<svg width="759" height="759" viewBox="0 0 759 759" fill="none" xmlns="http://www.w3.org/2000/svg">
<path d="M286.766 198.073H193.743C187.575 198.073 181.66 200.467 177.299 204.729C172.937 208.99 170.487 214.769 170.487 220.796V334.408C170.487 340.435 172.937 346.214 177.299 350.475C181.66 354.737 187.575 357.131 193.743 357.131H216.999C223.167 357.131 229.082 359.525 233.443 363.786C237.804 368.047 240.255 373.827 240.255 379.853M286.766 198.073C286.766 220.796 305.371 266.241 379.79 266.241C454.209 266.241 472.813 220.796 472.813 198.073M286.766 198.073L240.255 379.853M472.813 198.073H565.837C572.005 198.073 577.92 200.467 582.281 204.729C586.642 208.99 589.093 214.769 589.093 220.796V334.408C589.093 340.435 586.642 346.214 582.281 350.475C577.92 354.737 572.005 357.131 565.837 357.131H542.581C539.527 357.131 536.503 357.718 533.681 358.86C530.86 360.002 528.296 361.676 526.136 363.786C523.977 365.896 522.264 368.401 521.095 371.158C519.926 373.914 519.325 376.869 519.325 379.853M472.813 198.073L519.325 379.853M519.325 379.853V538.911C519.325 544.937 516.875 550.717 512.513 554.978C508.152 559.239 502.237 561.633 496.069 561.633H263.511C260.457 561.633 257.432 561.045 254.611 559.903C251.789 558.762 249.226 557.088 247.066 554.978C244.907 552.868 243.194 550.363 242.025 547.606C240.856 544.849 240.255 541.895 240.255 538.911V379.853" stroke="#1C2122" stroke-width="43.1809" stroke-linecap="round" stroke-linejoin="round"/>
<path d="M525.08 360.608L481.07 215.374H606.499L595.497 351.806L525.08 360.608Z" fill="#1C2122"/>
</svg>
