<svg width="759" height="759" viewBox="0 0 759 759" fill="none" xmlns="http://www.w3.org/2000/svg">
<path d="M286.04 198.073H193.016C186.849 198.073 180.933 200.467 176.572 204.729C172.211 208.99 169.761 214.769 169.761 220.796V334.408C169.761 340.435 172.211 346.214 176.572 350.475C180.933 354.737 186.849 357.131 193.016 357.131H216.272C222.44 357.131 228.355 359.525 232.717 363.786C237.078 368.047 239.528 373.827 239.528 379.853M286.04 198.073C286.04 220.796 304.645 266.241 379.063 266.241C453.482 266.241 472.087 220.796 472.087 198.073M286.04 198.073L239.528 379.853M472.087 198.073H565.11C571.278 198.073 577.193 200.467 581.555 204.729C585.916 208.99 588.366 214.769 588.366 220.796V334.408C588.366 340.435 585.916 346.214 581.555 350.475C577.193 354.737 571.278 357.131 565.11 357.131H541.854C538.8 357.131 535.776 357.718 532.955 358.86C530.133 360.002 527.569 361.676 525.41 363.786C523.25 365.896 521.537 368.401 520.369 371.158C519.2 373.914 518.598 376.869 518.598 379.853M472.087 198.073L518.598 379.853M518.598 379.853V538.911C518.598 544.937 516.148 550.717 511.787 554.978C507.426 559.239 501.51 561.633 495.343 561.633H262.784C259.73 561.633 256.706 561.045 253.884 559.903C251.063 558.762 248.499 557.088 246.34 554.978C244.18 552.868 242.467 550.363 241.298 547.606C240.13 544.849 239.528 541.895 239.528 538.911V379.853" stroke="#1C2122" stroke-width="43.1809" stroke-linecap="round" stroke-linejoin="round"/>
<path d="M286.462 228.291L239.224 375.712V382.228L229.449 500.327L255.513 558.969H513.702L520.218 382.228L477.865 228.291L431.44 264.943H338.589L286.462 228.291Z" fill="#1C2122"/>
</svg>
