<svg width="759" height="759" viewBox="0 0 759 759" fill="none" xmlns="http://www.w3.org/2000/svg">
<path d="M532.964 543.379C551.227 519.154 565.863 490.752 576.05 459.55C592.899 455.468 606.637 444.877 616.126 432.288C628.312 416.126 634.923 395.223 634.923 373.465C634.923 351.29 627.946 331.063 612.575 316.568C605.226 309.639 596.883 304.892 588.222 301.85C579.918 253.563 559.685 214.722 529.415 186.18C489.253 148.312 435.333 132.265 379.429 132.265C323.525 132.265 269.605 148.312 229.445 186.18C199.175 214.723 178.942 253.564 170.638 301.852C161.979 304.892 153.632 309.639 146.285 316.568C130.912 331.063 123.936 351.29 123.936 373.467C123.936 395.225 130.546 416.126 142.732 432.29C152.222 444.877 165.959 455.468 182.809 459.55C192.995 490.752 207.631 519.154 225.894 543.379C263.25 592.927 317.22 626.448 379.429 626.448C441.639 626.448 495.61 592.927 532.964 543.379Z" stroke="#1C2122" stroke-width="43.1809"/>
<path d="M265.935 402.796L223.984 444.746" stroke="#1C2122" stroke-width="28.7873" stroke-miterlimit="20" stroke-linecap="round" stroke-linejoin="bevel"/>
<path d="M534.876 402.796L492.926 444.746" stroke="#1C2122" stroke-width="28.7873" stroke-miterlimit="20" stroke-linecap="round" stroke-linejoin="bevel"/>
<path d="M467.64 402.796L425.689 444.746" stroke="#1C2122" stroke-width="28.7873" stroke-miterlimit="20" stroke-linecap="round" stroke-linejoin="bevel"/>
<path d="M333.171 402.796L291.219 444.746" stroke="#1C2122" stroke-width="28.7873" stroke-miterlimit="20" stroke-linecap="round" stroke-linejoin="bevel"/>
</svg>
