<svg width="759" height="759" viewBox="0 0 759 759" fill="none" xmlns="http://www.w3.org/2000/svg">
<path d="M195.499 222.61C213.805 220.846 232.241 226.794 247.431 236.782L326.031 288.462C340.439 273.698 359.434 265.497 379.158 265.525C399.671 265.525 418.367 274.233 432.285 288.462L510.884 236.782C526.074 226.794 544.51 220.846 562.816 222.61C581.927 224.488 600.597 234.933 612.204 256.191C626.797 282.856 638.819 322.355 638.819 379.356C638.819 436.357 626.797 475.829 612.204 502.522C600.597 523.78 581.927 534.224 562.816 536.102C544.51 537.867 526.074 531.919 510.884 521.93L432.285 470.251C417.877 485.015 398.882 493.216 379.158 493.188C359.434 493.215 340.439 485.015 326.031 470.251L247.431 521.93C232.241 531.919 213.805 537.867 195.499 536.074C176.388 534.224 157.718 523.78 146.111 502.522C131.518 475.829 119.496 436.357 119.496 379.356C119.496 322.355 131.518 282.884 146.111 256.191C157.718 234.933 176.388 224.488 195.499 222.61Z" stroke="#1C2122" stroke-width="43.1809"/>
</svg>
