<svg width="759" height="759" viewBox="0 0 759 759" fill="none" xmlns="http://www.w3.org/2000/svg">
<path d="M113.615 645.284C126.72 645.256 277.988 643.929 353.458 598.245C403.06 566.324 434.119 514.272 467.521 466.755C473.961 456.868 482.28 448.384 491.99 441.8L594.199 372.431C607.734 363.224 616.927 348.756 619.605 332.443L643.811 184.584C647.626 161.343 637.688 137.986 618.405 124.87C569.933 90.8566 542.914 130.771 516.606 166.64C513.567 162.339 510.19 158.296 506.508 154.548C485.527 133.157 450.375 137.228 434.681 162.867C415.388 203.326 371.398 249.892 365.382 271.786C359.366 293.679 356.941 338.92 356.941 338.92C338.706 344.416 317.72 351.902 297.934 360.369C273.26 370.945 245.776 384.998 229.678 401.218L168.826 460.13L113.615 461.53" stroke="#1C2122" stroke-width="43.1809" stroke-linecap="round"/>
</svg>
