<svg width="760" height="759" viewBox="0 0 760 759" fill="none" xmlns="http://www.w3.org/2000/svg">
<path d="M170.717 333.911V220.298C170.717 214.272 173.167 208.493 177.528 204.231C181.889 199.97 187.805 197.576 193.972 197.576H286.996C286.996 220.298 305.601 265.743 380.019 265.743C454.438 265.743 473.043 220.298 473.043 197.576H566.066C572.234 197.576 578.149 199.97 582.511 204.231C586.872 208.493 589.322 214.272 589.322 220.298V333.911C589.322 339.937 586.872 345.717 582.511 349.978C578.149 354.239 572.234 356.633 566.066 356.633H542.81C539.756 356.633 536.732 357.221 533.911 358.363C531.089 359.505 528.525 361.179 526.366 363.289C524.206 365.399 522.493 367.903 521.325 370.66C520.156 373.417 519.554 376.372 519.554 379.356V538.413C519.554 544.44 517.104 550.219 512.743 554.48C508.382 558.742 502.467 561.136 496.299 561.136H263.74C260.686 561.136 257.662 560.548 254.84 559.406C252.019 558.264 249.455 556.591 247.296 554.481C245.136 552.371 243.423 549.866 242.254 547.109C241.086 544.352 240.484 541.397 240.484 538.413V379.356C240.484 373.329 238.034 367.55 233.673 363.289C229.311 359.027 223.396 356.633 217.228 356.633H193.972C187.805 356.633 181.889 354.239 177.528 349.978C173.167 345.717 170.717 339.937 170.717 333.911Z" stroke="#1C2122" stroke-width="43.1809" stroke-linecap="round" stroke-linejoin="round"/>
</svg>
