<svg width="759" height="759" viewBox="0 0 759 759" fill="none" xmlns="http://www.w3.org/2000/svg">
<path d="M533.06 543.379C551.323 519.155 565.959 490.752 576.145 459.55C592.995 455.468 606.733 444.877 616.222 432.288C628.408 416.126 635.019 395.223 635.019 373.465C635.019 351.29 628.043 331.063 612.67 316.568C605.323 309.639 596.978 304.892 588.317 301.85C580.013 253.563 559.779 214.722 529.508 186.18C489.347 148.312 435.428 132.265 379.524 132.265C323.621 132.265 269.702 148.312 229.541 186.18C199.27 214.723 179.036 253.564 170.732 301.852C162.072 304.892 153.727 309.639 146.379 316.568C131.006 331.063 124.03 351.29 124.03 373.467C124.03 395.225 130.641 416.125 142.827 432.29C152.316 444.877 166.054 455.468 182.904 459.55C193.09 490.752 207.725 519.155 225.988 543.379C263.344 592.927 317.315 626.448 379.524 626.448C441.734 626.448 495.705 592.927 533.06 543.379Z" stroke="#1C2122" stroke-width="43.1809"/>
</svg>
