<svg width="759" height="759" viewBox="0 0 759 759" fill="none" xmlns="http://www.w3.org/2000/svg">
<path d="M117.887 333.911V220.299C117.887 207.749 233.691 197.576 246.534 197.576H339.558C339.558 220.299 358.163 265.744 432.581 265.744C507 265.744 525.605 220.299 525.605 197.576H618.628C631.472 197.576 641.884 207.749 641.884 220.299V333.911C641.884 346.46 631.472 356.633 618.628 356.634H595.372C582.528 356.633 572.116 366.807 572.116 379.356V538.413C572.116 550.963 561.704 561.136 548.861 561.136H316.302C303.458 561.136 293.046 550.963 293.046 538.413V379.356C293.046 366.807 282.634 356.634 269.79 356.633H246.534C233.691 356.633 117.887 346.46 117.887 333.911Z" stroke="#1C2122" stroke-width="43.1809" stroke-linecap="round" stroke-linejoin="round"/>
</svg>
