<svg width="759" height="759" viewBox="0 0 759 759" fill="none" xmlns="http://www.w3.org/2000/svg">
<path d="M532.648 504.234C550.911 480.009 565.548 451.606 575.734 420.404C592.584 416.322 606.322 405.731 615.81 393.142C627.996 376.98 634.607 356.078 634.607 334.32C634.607 312.145 627.631 291.917 612.259 277.422C604.911 270.494 596.568 265.746 587.907 262.704C579.603 214.418 559.37 175.577 529.099 147.034C488.938 109.166 435.018 93.1189 379.114 93.1189C323.209 93.1189 269.29 109.166 229.13 147.034C198.859 175.577 178.626 214.418 170.323 262.706C161.663 265.746 153.317 270.494 145.97 277.422C130.597 291.917 123.62 312.145 123.62 334.321C123.62 356.079 130.231 376.98 142.417 393.144C151.907 405.731 165.644 416.322 182.493 420.404C192.68 451.606 207.316 480.009 225.579 504.234C262.934 553.781 316.905 587.302 379.114 587.302C441.324 587.302 495.295 553.781 532.648 504.234Z" stroke="#1C2122" stroke-width="43.1809"/>
<path d="M282.105 279.533C330.045 330.025 333.395 403.019 251.256 474.892C169.116 546.765 207.448 673.15 343.648 666.945C159.32 745.335 49.6847 599.44 124.589 470.849C181.206 373.655 277.139 376.131 223.477 314.831C166.989 250.299 213.843 142.209 303.391 129.347C256.238 157.186 232.272 227.045 282.105 279.533Z" fill="#1C2122"/>
</svg>
