<svg width="759" height="759" viewBox="0 0 759 759" fill="none" xmlns="http://www.w3.org/2000/svg">
<path d="M641.745 333.911V220.298C641.745 207.749 525.941 197.576 513.098 197.576H420.074C420.074 220.298 401.469 265.743 327.051 265.743C252.632 265.743 234.027 220.298 234.027 197.576H141.004C128.16 197.576 117.748 207.749 117.748 220.298V333.911C117.748 346.46 128.16 356.633 141.004 356.633H164.26C177.104 356.633 187.516 366.807 187.516 379.356V538.413C187.516 550.962 197.928 561.136 210.771 561.136H443.33C456.174 561.136 466.586 550.963 466.586 538.413V379.356C466.586 366.807 476.998 356.633 489.842 356.633H513.098C525.941 356.633 641.745 346.46 641.745 333.911Z" stroke="#1C2122" stroke-width="43.1809" stroke-linecap="round" stroke-linejoin="round"/>
</svg>
