<svg width="759" height="759" viewBox="0 0 759 759" fill="none" xmlns="http://www.w3.org/2000/svg">
<path d="M286.903 198.073H193.88C187.712 198.073 181.797 200.467 177.435 204.729C173.074 208.99 170.624 214.769 170.624 220.796V334.408C170.624 340.435 173.074 346.214 177.435 350.475C181.797 354.737 187.712 357.131 193.88 357.131H217.136C223.303 357.131 229.219 359.525 233.58 363.786C237.941 368.047 240.391 373.827 240.391 379.853M286.903 198.073C286.903 220.796 305.508 266.241 379.927 266.241C454.345 266.241 472.95 220.796 472.95 198.073M286.903 198.073L240.391 379.853M472.95 198.073H565.974C572.141 198.073 578.057 200.467 582.418 204.729C586.779 208.99 589.229 214.769 589.229 220.796V334.408C589.229 340.435 586.779 346.214 582.418 350.475C578.057 354.737 572.141 357.131 565.974 357.131H542.718C539.664 357.131 536.64 357.718 533.818 358.86C530.996 360.002 528.433 361.676 526.273 363.786C524.114 365.896 522.401 368.401 521.232 371.158C520.063 373.914 519.462 376.869 519.462 379.853M472.95 198.073L519.462 379.853M519.462 379.853V538.911C519.462 544.937 517.011 550.717 512.65 554.978C508.289 559.239 502.374 561.633 496.206 561.633H263.647C260.593 561.633 257.569 561.045 254.748 559.903C251.926 558.762 249.362 557.088 247.203 554.978C245.043 552.868 243.33 550.363 242.162 547.606C240.993 544.849 240.391 541.895 240.391 538.911V379.853" stroke="#1C2122" stroke-width="43.1809" stroke-linecap="round" stroke-linejoin="round"/>
<path d="M246.371 360.608L290.381 215.374H164.952L175.954 351.806L246.371 360.608Z" fill="#1C2122"/>
</svg>
