<svg width="759" height="759" viewBox="0 0 759 759" fill="none" xmlns="http://www.w3.org/2000/svg">
<path d="M644.751 645.285C631.646 645.256 480.378 643.929 404.908 598.246C355.306 566.325 324.246 514.272 290.845 466.756C284.404 456.868 276.086 448.385 266.376 441.8L164.167 372.431C150.631 363.224 141.439 348.756 138.761 332.443L114.555 184.584C110.74 161.343 120.677 137.986 139.961 124.87C188.433 90.8567 215.451 130.771 241.76 166.64C244.799 162.339 248.176 158.296 251.858 154.549C272.839 133.157 307.991 137.228 323.685 162.867C342.977 203.326 386.967 249.893 392.984 271.786C399 293.679 401.425 338.92 401.425 338.92C419.659 344.416 440.646 351.902 460.432 360.369C485.106 370.946 512.59 384.998 528.688 401.219L589.539 460.131L644.751 461.53" stroke="#1C2122" stroke-width="43.1809" stroke-linecap="round"/>
</svg>
